<?xml version="1.0" encoding="iso-8859-1"?>
<!-- Generator: Adobe Illustrator 19.0.0, SVG Export Plug-In . SVG Version: 6.00 Build 0)  -->
<svg version="1.1" id="Layer_1" xmlns="http://www.w3.org/2000/svg" xmlns:xlink="http://www.w3.org/1999/xlink" x="0px" y="0px"
	 viewBox="0 0 490.906 490.906" style="enable-background:new 0 0 490.906 490.906;" xml:space="preserve">
<polygon style="fill:#363E44;" points="297.819,438.107 193.087,438.107 211.298,340.968 279.607,340.968 "/>
<g>
	<polyline style="fill:#22292D;" points="211.298,340.968 279.607,340.968 297.819,438.107 	"/>
	<path style="fill:#22292D;" d="M490.906,332.816c0,16.352-6.302,21.772-23.796,21.772H23.804C6.302,354.588,0,349.168,0,332.816
		V72.925c0-16.368,14.186-29.649,31.681-29.649h427.552c17.495,0,31.673,13.28,31.673,29.649V332.816z"/>
</g>
<path style="fill:#363E44;" d="M490.906,323.954c0,16.353-6.302,21.772-23.796,21.772H23.804C6.302,345.726,0,340.307,0,323.954
	V64.063c0-16.368,14.186-29.649,31.681-29.649h427.552c17.495,0,31.673,13.28,31.673,29.649V323.954z"/>
<path style="fill:#22292D;" d="M0,64.063c0-16.368,14.186-29.649,31.681-29.649h427.552c17.495,0,31.673,13.28,31.673,29.649
	v259.891c0,16.353-6.302,21.772-23.796,21.772H211.716"/>
<path style="fill:#051A28;" d="M459.24,34.414H31.681C14.178,34.414,0,47.695,0,64.063v234.228h490.906V64.063
	C490.906,47.695,476.727,34.414,459.24,34.414z"/>
<g>
	<polygon style="fill:#C63205;" points="245.453,320.827 254.779,330.138 260.191,324.71 245.453,309.941 230.715,324.71 
		236.158,330.138 	"/>
	<path style="fill:#C63205;" d="M473.23,298.291V75.106c0-13.044-2.702-23.631-15.754-23.631H33.422
		c-13.044,0-15.754,10.587-15.754,23.631v223.185H473.23z"/>
</g>
<g>
	<path style="fill:#AA2102;" d="M473.23,298.291V75.106c0-13.044-2.702-23.631-15.754-23.631H33.422
		c-13.044,0-15.754,10.587-15.754,23.631"/>
	<rect x="17.668" y="273.652" style="fill:#AA2102;" width="455.562" height="24.615"/>
</g>
<path style="fill:#363E44;" d="M351.468,445.905c0,5.845,0.386,10.587-8.862,10.587H148.299c-9.247,0-8.862-4.742-8.862-10.587l0,0
	c0-5.845,7.491-10.587,16.738-10.587H334.73C343.977,435.318,351.468,440.06,351.468,445.905L351.468,445.905z"/>
<path style="fill:#22292D;" d="M351.468,445.905L351.468,445.905c0,5.845,0.386,10.587-8.862,10.587H148.299
	c-9.247,0-8.862-4.742-8.862-10.587l0,0"/>
<g>
	<circle style="fill:#6F7172;" cx="221.318" cy="387.552" r="2.875"/>
	<circle style="fill:#6F7172;" cx="237.41" cy="387.552" r="2.875"/>
	<circle style="fill:#6F7172;" cx="253.495" cy="387.552" r="2.875"/>
	<circle style="fill:#6F7172;" cx="269.588" cy="387.552" r="2.875"/>
	<circle style="fill:#6F7172;" cx="221.318" cy="403.306" r="2.875"/>
	<circle style="fill:#6F7172;" cx="237.41" cy="403.306" r="2.875"/>
	<circle style="fill:#6F7172;" cx="253.495" cy="403.306" r="2.875"/>
	<circle style="fill:#6F7172;" cx="269.588" cy="403.306" r="2.875"/>
	<circle style="fill:#6F7172;" cx="221.318" cy="419.06" r="2.875"/>
	<circle style="fill:#6F7172;" cx="237.41" cy="419.06" r="2.875"/>
	<circle style="fill:#6F7172;" cx="253.495" cy="419.06" r="2.875"/>
	<circle style="fill:#6F7172;" cx="269.588" cy="419.06" r="2.875"/>
</g>
<g>
	<path style="fill:#CFE7E8;" d="M98.903,110.324c1.772-2.009,2.631-4.167,2.631-6.577c0-6.01-4.742-10.72-10.784-10.72H74.256
		c-0.89,0-1.615,0.725-1.615,1.638v33.942c0,0.882,0.725,1.623,1.615,1.623h16.707c6.357,0,11.721-5.333,11.721-11.65
		C102.684,115.326,101.281,112.317,98.903,110.324z M82.81,115.491h6.617c1.323,0,2.434,1.126,2.434,2.481
		c0,1.402-1.048,2.489-2.434,2.489H82.81V115.491z M89.159,106.023h-6.357v-3.387h6.357c0.937,0,1.772,0.756,1.772,1.686
		S90.096,106.023,89.159,106.023z"/>
	<path style="fill:#CFE7E8;" d="M136.609,93.019h-14.95c-0.906,0-1.599,0.725-1.599,1.638v33.942c0,0.882,0.693,1.623,1.599,1.623
		h6.94c0.89,0,1.631-0.74,1.631-1.623v-8.342h2.922c4.167,0,6.089,4.025,6.089,6.751v1.583c0,0.882,0.74,1.623,1.631,1.623h6.94
		c0.906,0,1.646-0.74,1.646-1.623v-1.938c0-3.442-1.197-7.641-4.34-10.256c2.678-2.765,4.34-6.695,4.34-10.484
		C149.449,98.816,143.683,93.019,136.609,93.019z M130.221,102.636h4.584c2.182,0,4.017,1.82,4.017,3.994
		c0,2.229-1.812,4.017-4.017,4.017h-4.584V102.636z"/>
	<path style="fill:#CFE7E8;" d="M189.054,120.47h-11.815v-4.813h10.831c0.89,0,1.599-0.74,1.599-1.638v-6.372
		c0-0.882-0.709-1.623-1.599-1.623h-10.831v-3.245h11.524c0.906,0,1.646-0.74,1.646-1.631v-6.483c0-0.914-0.74-1.638-1.646-1.638
		h-20.094c-0.859,0-1.599,0.725-1.599,1.638v33.942c0,0.882,0.74,1.623,1.599,1.623h20.385c0.906,0,1.646-0.74,1.646-1.623V122.1
		C190.7,121.21,189.96,120.47,189.054,120.47z"/>
	<path style="fill:#CFE7E8;" d="M223.342,93.113c-0.26-0.575-0.843-0.961-1.489-0.961c-0.63,0-1.229,0.386-1.465,0.961
		l-15.399,34.84c-0.228,0.473-0.165,1.087,0.11,1.528c0.323,0.473,0.827,0.74,1.371,0.74h7.31c0.662,0,1.229-0.386,1.489-0.992
		l2.095-5.01h9.058l2.016,5.01c0.26,0.575,0.874,0.992,1.536,0.992h7.263c0.031,0.024,0.031,0.024,0.031,0.024
		c0.89-0.024,1.631-0.764,1.631-1.646c0-0.323-0.095-0.646-0.276-0.929L223.342,93.113z M221.854,112.435l1.016,2.41h-2.032
		L221.854,112.435z"/>
	<path style="fill:#CFE7E8;" d="M272.423,109.757l10.429-14.155c0.354-0.496,0.417-1.15,0.126-1.717
		c-0.26-0.512-0.827-0.866-1.434-0.866h-7.814c-0.504,0-1.032,0.252-1.308,0.709l-7.326,10.366v-9.437
		c0-0.914-0.725-1.638-1.615-1.638h-6.94c-0.874,0-1.615,0.725-1.615,1.638v33.942c0,0.882,0.74,1.623,1.615,1.623h6.94
		c0.89,0,1.615-0.74,1.615-1.623v-9.058l1-1.3l7.767,11.296c0.276,0.441,0.788,0.693,1.308,0.693h8.767
		c0.567,0,1.15-0.339,1.418-0.866c0.276-0.536,0.244-1.182-0.11-1.701L272.423,109.757z"/>
	<path style="fill:#CFE7E8;" d="M309.776,93.019h-6.924c-0.906,0-1.646,0.725-1.646,1.638v33.942c0,0.882,0.74,1.623,1.646,1.623
		h6.924c0.906,0,1.646-0.74,1.646-1.623V94.657C311.422,93.743,310.682,93.019,309.776,93.019z"/>
	<path style="fill:#CFE7E8;" d="M360.267,93.019h-6.475c-0.906,0-1.646,0.725-1.646,1.638v12.918l-11.941-13.974
		c-0.323-0.37-0.756-0.575-1.245-0.575h-6.065c-0.906,0-1.615,0.725-1.615,1.638v33.942c0,0.882,0.709,1.623,1.615,1.623h6.522
		c0.874,0,1.615-0.74,1.615-1.623v-19.708l18.015,21.622c0.323,0.37,0.772,0.575,1.213,0.575c0.213,0,0.386-0.031,0.583-0.102
		c0.63-0.221,1.048-0.827,1.048-1.504V94.665C361.897,93.743,361.204,93.019,360.267,93.019z"/>
	<path style="fill:#CFE7E8;" d="M418.036,108.828c-0.126-0.788-0.827-1.363-1.615-1.363h-18.274c-0.89,0-1.599,0.725-1.599,1.631
		v6.365c0,0.874,0.709,1.615,1.599,1.615h8.058c-1.465,2.269-3.986,4.191-7.633,4.191c-5.081,0-9.058-4.143-9.058-9.5
		c0-5.38,3.986-9.57,9.058-9.57c2.97,0,5.711,1.418,7.341,3.773c0.26,0.362,0.646,0.599,1.063,0.693
		c0.449,0.071,0.874-0.047,1.229-0.299l5.711-4.191c0.354-0.252,0.583-0.638,0.646-1.063c0.079-0.433-0.047-0.859-0.291-1.213
		c-3.71-5.01-9.121-7.672-15.691-7.672c-10.815,0-19.614,8.759-19.614,19.543c0,10.72,8.799,19.48,19.614,19.48
		c10.862,0,19.692-8.751,19.692-19.48C418.265,110.75,418.178,109.804,418.036,108.828z"/>
	<path style="fill:#CFE7E8;" d="M150.221,149.984h-13.028c-1.772,0-3.182,1.426-3.182,3.19v50.877L91.104,151.15
		c-0.646-0.74-1.552-1.166-2.505-1.166H75.8c-1.741,0-3.151,1.426-3.151,3.19v95.035c0,1.772,1.418,3.214,3.151,3.214h13.06
		c1.772,0,3.198-1.449,3.198-3.214v-62.905l55.721,66.568c0.63,0.772,1.504,1.15,2.45,1.15c0.386,0,0.74-0.032,1.095-0.173
		c1.245-0.465,2.095-1.67,2.095-3.001v-96.673C153.403,151.41,151.977,149.984,150.221,149.984z"/>
</g>
<g>
	<path style="fill:#B0D3D6;" d="M226.131,231.448h-39.188v-25.773h36.431c1.788,0,3.23-1.426,3.23-3.206v-13.044
		c0-1.757-1.449-3.159-3.23-3.159h-36.431v-16.589h38.353c1.772,0,3.198-1.434,3.198-3.214v-13.288c0-1.772-1.434-3.19-3.198-3.19
		h-55.398c-1.741,0-3.182,1.426-3.182,3.19v95.035c0,1.772,1.449,3.214,3.182,3.214h56.233c1.741,0,3.182-1.449,3.182-3.214v-13.58
		C229.313,232.873,227.872,231.448,226.131,231.448z"/>
	<path style="fill:#B0D3D6;" d="M339.054,149.984h-14.509c-1.292,0-2.473,0.788-2.985,2.001l-21.599,53.122l-21.599-53.122
		c-0.504-1.213-1.678-2.001-2.938-2.001h-14.557c-1.063,0-2.064,0.52-2.678,1.394c-0.567,0.882-0.693,1.993-0.276,2.985
		l18.385,45.773l-2.095,5.049l-21.662-53.193c-0.488-1.213-1.646-2.001-2.938-2.001h-14.572c-1.048,0-2.032,0.52-2.615,1.394
		c-0.583,0.882-0.725,1.993-0.323,3.001l39.093,96.666c0.488,1.213,1.662,1.985,2.954,1.985l0,0c1.292,0,2.489-0.772,2.985-1.985
		l9.956-24.489l9.925,24.489c0.48,1.213,1.646,1.985,2.954,1.985l0,0c1.276,0,2.458-0.772,2.985-1.985l39.077-96.666
		c0.402-1.008,0.291-2.119-0.307-3.001C341.118,150.504,340.133,149.984,339.054,149.984z"/>
	<path style="fill:#B0D3D6;" d="M388.206,190.582H374.24c-5.892,0-10.665-4.781-10.665-10.657c0-5.86,4.766-10.665,10.665-10.665
		h28.617c1.772,0,3.198-1.426,3.198-3.19v-12.902c0-1.772-1.434-3.19-3.198-3.19h-30.263c-16.274,0-29.523,13.296-29.523,29.657
		c0,16.455,13.509,30.373,29.523,30.373h13.202c6.491,0,11.445,4.632,11.445,10.791c0,6.065-4.955,10.642-11.445,10.642h-34.399
		c-1.757,0-3.167,1.434-3.167,3.19v13.58c0,1.772,1.418,3.214,3.167,3.214h36.817c16.573,0,30.058-13.808,30.058-30.767
		C418.265,204.067,404.779,190.582,388.206,190.582z"/>
</g>
<g>
	<path style="fill:#CFE7E8;" d="M252.542,151.985c-0.488-1.213-1.646-2.001-2.938-2.001h-14.572c-1.048,0-2.032,0.52-2.615,1.394
		c-0.583,0.882-0.725,1.993-0.323,3.001l11.878,29.342l15.273-15.265L252.542,151.985z"/>
	<path style="fill:#CFE7E8;" d="M275.424,149.984h-14.557c-1.063,0-2.064,0.52-2.678,1.394c-0.567,0.882-0.693,1.993-0.276,2.985
		l4.427,10.996l14.816-14.848C276.653,150.189,276.039,149.984,275.424,149.984z"/>
	<path style="fill:#CFE7E8;" d="M223.374,186.25h-36.431v-16.573h38.353c1.772,0,3.198-1.434,3.198-3.214v-13.288
		c0-1.772-1.434-3.19-3.198-3.19h-55.398c-1.741,0-3.182,1.426-3.182,3.19v95.035c0,1.772,1.449,3.214,3.182,3.214h6.388
		l19.968-19.984h-9.311v-25.773h35.076l4.584-4.569v-11.681C226.603,187.66,225.162,186.25,223.374,186.25z"/>
</g>
<g>
</g>
<g>
</g>
<g>
</g>
<g>
</g>
<g>
</g>
<g>
</g>
<g>
</g>
<g>
</g>
<g>
</g>
<g>
</g>
<g>
</g>
<g>
</g>
<g>
</g>
<g>
</g>
<g>
</g>
</svg>
