<?xml version="1.0" encoding="iso-8859-1"?>
<!-- Generator: Adobe Illustrator 16.0.0, SVG Export Plug-In . SVG Version: 6.00 Build 0)  -->
<!DOCTYPE svg PUBLIC "-//W3C//DTD SVG 1.1//EN" "http://www.w3.org/Graphics/SVG/1.1/DTD/svg11.dtd">
<svg version="1.1" id="Capa_1" xmlns="http://www.w3.org/2000/svg" xmlns:xlink="http://www.w3.org/1999/xlink" x="0px" y="0px"
	 width="35.318px" height="35.318px" viewBox="0 0 35.318 35.318" style="enable-background:new 0 0 35.318 35.318;"
	 xml:space="preserve">
<g>
	<path d="M34.732,24.743c-0.781-0.781-2.048-0.781-2.828,0l-3.359,3.358l-1.943-1.944l2.12-2.121c0.781-0.781,0.781-2.047,0-2.83
		c-0.779-0.781-2.047-0.779-2.827,0l-2.123,2.121l-7.741-7.743c3.571-4.344,4.426-9.168,1.871-11.722
		c-0.965-0.965-2.301-1.475-3.864-1.475c-2.917,0-6.41,1.752-9.345,4.687c-2.043,2.041-3.553,4.413-4.254,6.679
		c-0.836,2.704-0.467,5.023,1.041,6.531c0.965,0.965,2.301,1.477,3.864,1.477c2.437,0,5.272-1.236,7.854-3.352l13.935,13.936
		c0.393,0.391,0.902,0.586,1.414,0.586c0.513,0,1.022-0.195,1.414-0.586l4.772-4.773C35.512,26.79,35.512,25.524,34.732,24.743z
		 M4.306,17.458c-0.384-0.384-0.402-1.374-0.048-2.521c0.505-1.632,1.693-3.466,3.261-5.033c2.428-2.428,5.021-3.515,6.517-3.515
		c0.334,0,0.786,0.053,1.036,0.303c0.863,0.864,0.022,4.317-3.213,7.553c-2.428,2.429-5.022,3.516-6.517,3.516
		C5.008,17.761,4.556,17.708,4.306,17.458z"/>
</g>
<g>
</g>
<g>
</g>
<g>
</g>
<g>
</g>
<g>
</g>
<g>
</g>
<g>
</g>
<g>
</g>
<g>
</g>
<g>
</g>
<g>
</g>
<g>
</g>
<g>
</g>
<g>
</g>
<g>
</g>
</svg>
