<?xml version="1.0" encoding="iso-8859-1"?>
<!-- Generator: Adobe Illustrator 16.0.0, SVG Export Plug-In . SVG Version: 6.00 Build 0)  -->
<!DOCTYPE svg PUBLIC "-//W3C//DTD SVG 1.1//EN" "http://www.w3.org/Graphics/SVG/1.1/DTD/svg11.dtd">
<svg version="1.1" id="Capa_1" xmlns="http://www.w3.org/2000/svg" xmlns:xlink="http://www.w3.org/1999/xlink" x="0px" y="0px"
	 width="482.587px" height="482.587px" viewBox="0 0 482.587 482.587" style="enable-background:new 0 0 482.587 482.587;"
	 xml:space="preserve">
<g>
	<g id="icons_22_">
		<g>
			<path d="M149.688,110.266c28.516,0,51.627-23.115,51.627-51.625c0-28.517-23.111-51.631-51.627-51.631
				c-28.514,0-51.625,23.114-51.625,51.631C98.062,87.151,121.174,110.266,149.688,110.266z"/>
			<circle cx="415.51" cy="51.627" r="51.627"/>
			<path d="M398.29,120.261c-11.688,10.625-25.444,22.396-55.668,23.128c-0.929,0.022-1.855,0.034-2.79,0.034
				c-33.186,0-69.295-13.873-76.415-17.198c-9.418-5.233-21.518-3.203-28.659,5.38c-8.077,9.707-6.755,24.123,2.952,32.199
				c7.336,6.104,34.458,14.197,37.525,15.1c16.147,4.75,40.131,10.247,64.634,10.247c1.285,0,2.574-0.015,3.86-0.046
				c12.634-0.307,23.89-2.423,33.746-5.492c2.622-0.815,7.214-3.528,7.214,2.845s-2.679,44.156-3.993,64.34
				c-0.161,2.485-1.813,6.914-6.334,6.914s-39.038,0-39.038,0c-19.402,0-31.939,5.735-61.636,27.802
				c-19.943,14.818-40.384,34.59-41.029,35.207c-9.123,8.73-9.368,28.16-0.637,37.283c8.73,9.122,25.29,10.958,34.414,2.227
				c25.34-24.25,57.347-50.586,72.214-50.586c0,0,44.396-0.09,49.449-0.09c5.051,0,11.894-0.171,11.166,7.532
				c-1.629,17.22-18.788,92.697,2.479,146.668c6.231,15.811,13.503,18.832,24.731,18.832c1.05,0,2.113-0.072,3.185-0.223
				c12.506-1.741,29.333-10.368,23.483-30.396c-20.846-71.376,4.785-155.938,5.003-156.581c1.029-2.979,2.668-15.477,2.44-18.531
				l5.236-118.604C465.826,110.158,411.749,108.027,398.29,120.261z"/>
			<path d="M221.214,286.076c-52.377-50.383-70.176-121.995-73.093-134.146c-2.917-12.151-18.245-32.996-46.468-35.255
				s-43.352,11.441-47.132,32.54c-2.559,14.281-11.156,195.365-11.156,218.562c0,25.521-13.852,49.869-24.952,69.521
				c-6.211,10.989-2.342,24.936,8.646,31.151c10.988,6.218,28.807,7.299,37.448-7.884c8.642-15.183,33.556-55.038,33.312-88.189
				c-0.057-7.691,0.196-20.938,0.28-30.352c0.024-2.68,4.094-3.615,5.964-1.398c31.233,37.02,40.313,77.603,41.394,113.288
				c0.375,12.386,9.968,22.543,27.582,21.772c17.614-0.77,23.249-10.935,22.866-23.557c-1.315-43.446-11.509-104.007-65.843-158.823
				c-2.2-2.22-3.325-4.22-3.229-9.03c0.219-10.994,0.772-32.987,1.15-50.479c0.066-3.104,2.752-2.877,4.122,0.129
				c13.257,29.104,31.924,60.589,57.408,85.104c4.436,4.267,10.146,6.386,15.848,6.386c6.001,0,11.993-2.349,16.481-7.013
				C230.595,309.305,230.314,294.83,221.214,286.076z"/>
		</g>
	</g>
</g>
<g>
</g>
<g>
</g>
<g>
</g>
<g>
</g>
<g>
</g>
<g>
</g>
<g>
</g>
<g>
</g>
<g>
</g>
<g>
</g>
<g>
</g>
<g>
</g>
<g>
</g>
<g>
</g>
<g>
</g>
</svg>
